<svg xmlns="http://www.w3.org/2000/svg" xmlns:xlink="http://www.w3.org/1999/xlink" viewBox="0 0 301.1 56.5"><defs><style>.cls-1{fill:none;}.cls-2,.cls-5{fill:#fff;}.cls-3{clip-path:url(#clip-path);}.cls-4{clip-path:url(#clip-path-2);}.cls-5{fill-rule:evenodd;}</style><clipPath id="clip-path"><rect class="cls-1" x="296.1" y="17.9" width="5" height="4.6"/></clipPath><clipPath id="clip-path-2"><rect class="cls-1" x="296.5" y="18.3" width="4.6" height="4"/></clipPath></defs><g id="Layer_2" data-name="Layer 2"><g id="Layer_1-2" data-name="Layer 1"><rect id="SVGID" class="cls-2" x="296.1" y="17.9" width="5" height="4.6"/><g class="cls-3"><rect id="SVGID-2" data-name="SVGID" class="cls-2" x="296.5" y="18.3" width="4.6" height="4"/></g><path class="cls-5" d="M60.6,4.5H46.1l3,.1,2.8.5,2.5.7,2.2,1L58.5,8l1.6,1.5,1.3,1.7,1,1.9.6,2.1.3,2.2v2.4l-.4,2.5-.8,2.6-1.2,2.7h2l1.3-2.8,1-2.7.6-2.7.2-2.6V14.4l-.5-2.2-.7-2.1-1-2L62.5,6.3,60.9,4.7ZM45.9,0,43.1.1,40.3.4,37.5.9l-2.8.7-2.8.8-2.8,1L26.3,4.6,23.6,5.9,20.9,7.3,18.3,8.9l-2.5,1.7-2.5,1.8L11,14.3l-2.2,2L6.7,18.4,4.8,20.6,3,22.9,1.4,25.3,0,27.7H7.1l1.4-2.4L10.2,23l1.9-2.2,2.1-2.1,2.2-2,2.4-1.9L21.3,13l2.6-1.6,2.7-1.5,2.7-1.3,2.8-1.1,2.8-1,2.8-.8,2.8-.6,2.8-.4L46,4.6H60.5L59.1,3.3,56.9,2.1l-2.4-.9L51.8.5,48.9.1Z"/><path class="cls-5" d="M58.1,9.8H46.9l2.9.2,2.6.5,2.2.9,1.9,1.2L58,14.1l1.1,1.8.7,2,.3,2.2-.2,2.4L59.3,25l-1.1,2.7h1.5L60.9,25l.8-2.6.4-2.4V17.7l-.4-2.2-.7-2-1.1-1.8-1.4-1.6ZM46.7,6.3,44,6.4l-2.7.4-2.8.6-2.8.8-2.8,1-2.7,1.2-2.6,1.4L25,13.4l-2.4,1.7-2.4,1.8-2.2,2L16,21l-1.8,2.2-1.6,2.3-1.4,2.3h5.4L18,25.6l1.7-2.2,1.9-2.1,2.1-2,2.2-1.8,2.4-1.6,2.6-1.5,2.6-1.3L36.2,12l2.7-.9,2.7-.7,2.7-.4L47,9.9H58.2l-1.3-1L54.8,7.8,52.4,7l-2.7-.5Z"/><path class="cls-5" d="M74.1,28.7h-7l-1.5,2.4-1.7,2.3L62,35.6l-2,2.1-2.2,2.1-2.4,1.9-2.5,1.8-2.6,1.6-2.7,1.5-2.8,1.3L42,49.1l-2.8,1-2.9.8-2.8.5-2.8.4-2.8.1H47.7l2.8-1.3,2.7-1.5,2.6-1.6,2.5-1.7L60.7,44l2.4-2,2.2-2,2.1-2.1,1.9-2.2,1.8-2.3,1.6-2.3Zm-60.9,0h-2L9.9,31.5l-1,2.8L8.3,37,8,39.5v2.4l.4,2.3.7,2.1,1,2,1.3,1.8L13,51.7l1.9,1.4L17,54.3l2.4,1L22,56l2.9.4,3.1.1,2.8-.1,2.8-.3,2.8-.5,2.8-.7L42,54l2.8-1,2.7-1.1H28l-3-.1-2.8-.5-2.5-.7-2.2-1-1.8-1.3-1.6-1.5-1.3-1.7-1-1.9-.6-2.1-.3-2.3.1-2.4.4-2.5.8-2.6Z"/><path class="cls-5" d="M62.8,28.7H57.3L55.9,31l-1.7,2.2-1.9,2.1-2.1,2-2.3,1.8-2.4,1.7L43,42.3l-2.6,1.3-2.7,1.1-2.7.9-2.5.5-2.7.4-2.6.1H42.3l1.4-.6,2.6-1.4L48.9,43l2.5-1.7,2.3-1.8,2.2-2,2-2.1,1.8-2.2,1.6-2.3Zm-47.1,0H14.2L13,31.4,12.2,34l-.4,2.5v2.3l.4,2.2.7,2L14,44.8l1.5,1.5,1.8,1.3,2.1,1.1,2.4.8,2.7.5,2.9.2,2.7-.1,2.8-.4,2.7-.6,2.8-.8,2.7-1,1.3-.6H27.2l-2.9-.2-2.6-.6L19.5,45l-2-1.2L16,42.3l-1.1-1.7-.7-2-.3-2.3.2-2.4.6-2.6Z"/><polygon class="cls-5" points="188.6 1.8 109.2 18.7 109.3 20.1 188.6 1.8"/><polygon class="cls-5" points="272.9 9.4 113.8 20.1 113.2 21.5 272.9 9.4"/><polygon class="cls-5" points="231.1 4 110.7 19.3 112.1 20.5 231.1 4"/><polygon class="cls-5" points="115.6 18.3 107.2 18.3 106.2 23.5 114.6 23.5 115.6 18.3"/><polygon class="cls-5" points="195.1 18.5 185.7 18.5 180.6 43.8 207.4 43.8 208.6 38 191.3 38 195.1 18.5"/><polygon class="cls-5" points="220.5 24.7 212.1 24.7 208.3 43.8 216.7 43.8 220.5 24.7"/><path class="cls-5" d="M251.4,24.6h-8.2l-.5,2.4h8.2Zm-1,4.5H235.7l2.7.4,1.8,1,.9,1.5v1.9l-.7,1.7L239.1,37,237,38l-3.1.4h14.7Zm-16-4.9-3.5.2-3,.7-2.6,1.1-2.1,1.5-1.6,1.8-1.2,2-.6,2.1-.2,2.5.5,2.2,1.3,1.9,2.2,1.5,3.1,1,4.1.3,2.5-.1,2.4-.4,2.3-.8,1.9-1.1h8.4l.4-2.3H234l-2.7-.4-1.8-1-.8-1.5V33.6l.7-1.8,1.4-1.5,2.2-1,2.8-.4h14.7l.4-2h-8.2l-1.3-1.3-1.9-.9-2.3-.5Zm13.8,16.3h-8.4l-.3,1.3-.8,2.3-1.4,1.6-2.1.9-3,.3h13.5l.2-.2,1.2-2.1.8-2.6Zm-20.7,4.1h-9.3l.3,2.3,1.2,1.7,2,1.2,2.7.8,3.4.4,3.9.1,4.1-.2,3.4-.5,2.8-.9,2.2-1.3,1.5-1.5H232.2l-1.8-.1-1.5-.4-1-.7Z"/><path class="cls-5" d="M270.4,24.2l-3,.2-2.6.7-2.2,1-1.7,1.3h16.8l-.3-.7-1.7-1.4-2.4-.8Zm7.8,5.6H265.6l1.8.2,1.2.7.6,1.1v1.6l-2.1,10.4h8.4L278,31.2ZM262.8,17.9h-8.4l-5.1,25.9h8.4l1.9-9.4.8-2.1,1.4-1.4,1.8-.9,2.1-.3h12.6V28.5l-.5-1.2H260.9Z"/><path class="cls-5" d="M293.2,18.5h-8.4l-1.2,6.1H292Zm4.4,6.2H279.2l-1,5h18.4Zm-2.7,14.6h0Zm-3.8-9.7h-8.4l-1.9,9.3v2.6l1,1.7,2.2.9,3.5.2h1.8l1.7-.1,1.6-.1L294,44l.9-4.6h-3l-1.4-.1-.8-.3-.3-.6.1-1Z"/><polygon class="cls-5" points="221.7 18.3 213.3 18.3 212.3 23.5 220.7 23.5 221.7 18.3"/><polygon class="cls-5" points="105.9 18.5 78.8 18.5 73.8 43.8 83.2 43.8 85.2 34.1 101.6 34.1 102.6 28.6 86.2 28.6 87.1 24.2 104.7 24.2 105.9 18.5"/><path class="cls-5" d="M133.3,24.2l-2.8.3-2.6.9-2.3,1.3-1.9,1.7h11.6l.8-4.1h-.6l-.7-.1h-1.5Zm1.6,6.6h-3.5l1.2.1,1.2.2.9.2Zm-10.6-6.1H116l-3.8,19.2h8.4l1.5-7.4.9-2.4,1.6-1.8,2.4-1.1,3.2-.4h4.7l.4-2.3H123.6Z"/><polygon class="cls-5" points="114.1 24.7 105.6 24.7 101.8 43.8 110.3 43.8 114.1 24.7"/><path class="cls-5" d="M162.2,28.2H149.7l.8.1.7.1.6.2.5.2.4.4.2.5.1.6h9.4Zm-12-4.3-3.8.1-3.3.5-2.7.9-2.2,1.3-1.5,1.8-.9,2.3v2.1l1.1,1.6,2.1,1.1,3.1.6,7.4.8,1.3.2.8.2.4.4v.7l-.5.8-1,.5-1.3.2-1.4.1h12.9l.8-2.1-.1-2.4-1.3-1.7-2.5-1.1-3.7-.6-7.1-.7-1.3-.2-.8-.3-.4-.4v-.4l.4-.9.9-.5,1.3-.3,1.6-.1h13.3v-.3l-1.3-1.7-2.1-1.2-2.6-.7-2.9-.4Zm-6.7,14h-9.8l.2,2.5,1.4,1.8,2.3,1.2,2.8.7,3.1.4,3.1.1,4.2-.2,3.5-.5,2.9-.9,2.2-1.3,1.5-1.6H146.8l-1-.1-.8-.2-.6-.3-.4-.3-.3-.4-.1-.4Z"/><path class="cls-5" d="M178.6,18.5h-8.4L169,24.6h8.4Zm4.3,6.2H164.5l-1,5h18.4Zm-2.7,14.6h0Zm-3.8-9.7H168l-1.8,9.3-.1,2.6,1,1.7,2.3.9,3.5.2h1.8l1.7-.1,1.6-.1,1.4-.1.9-4.6h-3l-1.4-.1-.8-.3-.3-.6.1-1Z"/></g></g></svg>